<svg id="Layer_1" data-name="Layer 1" xmlns="http://www.w3.org/2000/svg" viewBox="0 0 439.64 383.26"><defs><style>.cls-1{fill:#8a05ff;}</style></defs><path class="cls-1" d="M399.32,302.88h196.3c4.27,0,8.54-.21,12.81-.16,9.31.12,13.57,7.39,9,15.44-5.08,9-10.3,17.83-15.4,26.78-2.41,4.23-6.14,5.46-10.77,5.44q-31.08-.11-62.17,0-46.91,0-93.81.13c-9.06,0-12.26,3.22-12.26,12.21q0,59.34,0,118.69c0,9-3.32,12.29-12.24,12.29h-22.6c-9.46,0-12.75-3.27-12.75-12.62q0-59.16,0-118.31c0-9.13-3-12.16-12.2-12.15q-77.62,0-155.23.17c-5.55,0-9.25-1.9-11.91-6.76-4.58-8.37-9.5-16.55-14.25-24.83-5-8.74-.89-16,9.11-16H399.32Z" transform="translate(-179.64 -110.43)"/><path class="cls-1" d="M329.19,279.16H314.5c-9.74,0-13.93-7.25-9-15.78q15.46-26.94,31.07-53.81,26.64-46.14,53.28-92.29c1.81-3.15,3.86-5.86,7.69-6.65,4.33-.89,8,1.11,10.93,6.18q15,25.89,30,51.81,27,46.62,53.87,93.26a24.21,24.21,0,0,1,2.61,5.4,9.12,9.12,0,0,1-8.5,11.66c-11.42.27-22.85.19-34.27.05-3.86-.05-6.3-2.55-8.18-5.82-11.83-20.57-23.75-41.08-35.59-61.64-1.84-3.2-4.07-5.82-7.95-6.22-4.56-.47-7.56,1.88-9.76,5.69-11.66,20.22-23.49,40.35-35,60.68-3,5.31-6.7,8.06-12.94,7.56C338.25,278.88,333.71,279.17,329.19,279.16Z" transform="translate(-179.64 -110.43)"/><path class="cls-1" d="M254.88,446h8.27a9.46,9.46,0,0,1,8.67,5c5.34,9.23,10.8,18.4,16,27.74,4.06,7.37-.14,14.73-8.53,14.76q-45,.2-90,0c-8.13,0-12.07-7.81-7.87-15.1Q196,453,210.73,427.54c9-15.54,18-31.06,26.87-46.66,2.49-4.37,5.85-6.39,11-6.37,30.52.08,61,0,91.55-.07,8.24,0,11.68,3.46,11.69,11.69s0,16.57,0,24.86c0,7.39-3.71,11-11.18,11-21.47.05-42.95.2-64.42.05-5.46,0-9,2-11.52,6.73C261.77,434.33,258.51,439.68,254.88,446Z" transform="translate(-179.64 -110.43)"/><path class="cls-1" d="M543.86,445.7c-4.55-7.57-8.25-14.55-12.86-20.86-1.4-1.93-5.3-2.81-8.07-2.84-21.48-.23-43-.13-64.44-.14-8.41,0-11.66-3.21-11.68-11.57s0-16.84,0-25.25c0-6.85,3.59-10.7,10.37-10.72,31.4-.1,62.81-.06,94.21,0a9.73,9.73,0,0,1,8.92,5.3q28.52,49.44,57,98.89c4.13,7.19-.3,14.63-8.61,14.65q-44.28.15-88.56.12c-9.08,0-13.34-7.35-8.87-15.21,4.9-8.62,10.08-17.1,14.85-25.79,2.61-4.76,6.23-7,11.61-6.56C539.42,445.81,541.13,445.7,543.86,445.7Z" transform="translate(-179.64 -110.43)"/></svg>