<?xml version="1.0" standalone="no"?>
<!DOCTYPE svg PUBLIC "-//W3C//DTD SVG 20010904//EN"
 "http://www.w3.org/TR/2001/REC-SVG-20010904/DTD/svg10.dtd">
<svg version="1.0" xmlns="http://www.w3.org/2000/svg"
 width="800.000000pt" height="800.000000pt" viewBox="0 0 800.000000 800.000000"
 preserveAspectRatio="xMidYMid meet">
<metadata>
Created by potrace 1.14, written by Peter Selinger 2001-2017
</metadata>
<g transform="translate(0.000000,800.000000) scale(0.100000,-0.100000)"
fill="#000000" stroke="none">
<path d="M3890 7015 c-19 -9 -45 -30 -56 -48 -61 -91 -1147 -1980 -1160 -2017
-14 -38 -9 -72 14 -108 32 -49 53 -52 324 -52 223 0 256 2 281 18 21 12 90
122 240 382 335 579 316 547 355 566 44 21 98 13 131 -20 13 -14 138 -222 277
-463 192 -333 260 -443 285 -461 33 -23 36 -23 296 -20 l263 3 31 31 c23 23
33 44 36 77 6 50 27 10 -342 647 -197 339 -297 512 -475 820 -206 358 -294
510 -334 577 -42 71 -102 95 -166 68z"/>
<path d="M3855 4471 c-2124 -5 -2755 -9 -2771 -18 -33 -19 -57 -63 -58 -108
-1 -34 18 -72 117 -245 65 -113 129 -216 143 -230 l24 -25 1121 -5 1121 -5 34
-37 34 -38 0 -856 c0 -965 -5 -905 75 -944 41 -20 57 -21 259 -18 200 3 217 4
243 24 15 11 34 32 40 45 10 18 13 219 13 872 0 923 -2 896 56 934 27 17 85
18 1139 23 1031 5 1112 6 1135 22 31 21 270 430 277 473 5 37 -22 91 -59 119
-22 15 -45 20 -110 21 -46 1 -1320 -1 -2833 -4z"/>
<path d="M4665 3523 c-32 -9 -65 -34 -81 -64 -11 -22 -14 -76 -14 -252 0 -217
1 -225 23 -258 13 -19 38 -39 57 -46 25 -9 171 -12 517 -12 l482 -1 26 -22
c14 -13 59 -81 100 -153 l75 -130 -72 -5 c-116 -8 -104 4 -267 -280 -106 -184
-112 -197 -108 -240 4 -35 13 -51 41 -77 l36 -33 651 2 651 3 35 39 c64 70 75
46 -360 800 -212 367 -394 677 -404 688 -42 48 -42 48 -725 47 -354 -1 -652
-4 -663 -6z"/>
<path d="M1836 3488 c-19 -18 -68 -91 -109 -163 -40 -71 -209 -364 -375 -651
-165 -286 -308 -537 -318 -556 -35 -73 16 -161 100 -173 23 -3 316 -5 651 -3
569 3 612 4 637 21 36 25 62 81 55 123 -8 48 -242 449 -275 470 -19 12 -48 18
-99 18 -40 1 -73 4 -73 9 0 20 145 255 173 280 l31 27 486 0 c451 0 488 1 519
18 65 35 71 61 71 295 0 227 -6 256 -55 295 l-28 22 -678 0 -679 0 -34 -32z"/>
</g>
</svg>
